<svg width="120" height="120" viewBox="0 0 120 120" fill="none" xmlns="http://www.w3.org/2000/svg">
<ellipse cx="71.2195" cy="62" rx="48.7805" ry="50" fill="#E9E9E9"/>
<path d="M48.5801 76.9029C48.3162 76.9736 48.1608 77.2495 48.2331 77.519L49.4098 81.912C49.482 82.1816 49.7545 82.3428 50.0184 82.2721C50.2822 82.2014 50.4376 81.9256 50.3654 81.656L49.3194 77.7512L53.1416 76.7273C53.4055 76.6566 53.5608 76.3807 53.4886 76.1112C53.4164 75.8416 53.144 75.6804 52.8801 75.7511L48.5801 76.9029ZM95.5487 105.109L95.7941 104.673L48.9562 76.9554L48.7108 77.391L48.4654 77.8267L95.3033 105.545L95.5487 105.109Z" fill="black"/>
<line y1="-0.5" x2="55.4697" y2="-0.5" transform="matrix(0.860597 -0.509287 0.49077 0.871289 47.8049 47.8019)" stroke="black"/>
<line y1="61.5" x2="47.8049" y2="61.5" stroke="black"/>
<line x1="95.1341" y1="105" x2="95.1341" y2="120" stroke="black"/>
<line x1="95.1341" x2="95.1341" y2="20" stroke="black"/>
<line x1="47.3293" y1="32" x2="47.3293" y2="91" stroke="black"/>
</svg>
